<mxfile host="app.diagrams.net" modified="2022-07-01T12:31:56.942Z" agent="5.0 (Windows NT 10.0; Win64; x64) AppleWebKit/537.36 (KHTML, like Gecko) Chrome/103.0.5060.66 Safari/537.36 Edg/103.0.1264.44" etag="orFZuGMX9Ezmf7LjEuxi" version="16.6.4" type="github">
  <diagram id="C5RBs43oDa-KdzZeNtuy" name="Page-1">
    <mxGraphModel dx="1516" dy="2074" grid="1" gridSize="10" guides="1" tooltips="1" connect="1" arrows="1" fold="1" page="1" pageScale="1" pageWidth="827" pageHeight="1169" math="0" shadow="0">
      <root>
        <mxCell id="WIyWlLk6GJQsqaUBKTNV-0" />
        <mxCell id="WIyWlLk6GJQsqaUBKTNV-1" parent="WIyWlLk6GJQsqaUBKTNV-0" />
        <mxCell id="WIyWlLk6GJQsqaUBKTNV-2" value="" style="rounded=0;html=1;jettySize=auto;orthogonalLoop=1;fontSize=11;endArrow=block;endFill=0;endSize=8;strokeWidth=1;shadow=0;labelBackgroundColor=none;edgeStyle=orthogonalEdgeStyle;" parent="WIyWlLk6GJQsqaUBKTNV-1" source="WIyWlLk6GJQsqaUBKTNV-3" target="p4ynDfjE8gliLkYYfuY1-0" edge="1">
          <mxGeometry relative="1" as="geometry">
            <mxPoint x="220" y="-280" as="targetPoint" />
            <Array as="points" />
          </mxGeometry>
        </mxCell>
        <mxCell id="WIyWlLk6GJQsqaUBKTNV-3" value="开始" style="rounded=1;whiteSpace=wrap;html=1;fontSize=12;glass=0;strokeWidth=1;shadow=0;" parent="WIyWlLk6GJQsqaUBKTNV-1" vertex="1">
          <mxGeometry x="160" y="-380" width="120" height="40" as="geometry" />
        </mxCell>
        <mxCell id="WIyWlLk6GJQsqaUBKTNV-11" value="结束" style="rounded=1;whiteSpace=wrap;html=1;fontSize=12;glass=0;strokeWidth=1;shadow=0;" parent="WIyWlLk6GJQsqaUBKTNV-1" vertex="1">
          <mxGeometry x="290" y="-450" width="120" height="40" as="geometry" />
        </mxCell>
        <mxCell id="p4ynDfjE8gliLkYYfuY1-5" value="" style="edgeStyle=orthogonalEdgeStyle;rounded=0;orthogonalLoop=1;jettySize=auto;html=1;" edge="1" parent="WIyWlLk6GJQsqaUBKTNV-1" source="p4ynDfjE8gliLkYYfuY1-0" target="p4ynDfjE8gliLkYYfuY1-4">
          <mxGeometry relative="1" as="geometry" />
        </mxCell>
        <mxCell id="p4ynDfjE8gliLkYYfuY1-0" value="导入矩阵数据" style="rounded=0;whiteSpace=wrap;html=1;" vertex="1" parent="WIyWlLk6GJQsqaUBKTNV-1">
          <mxGeometry x="160" y="-270" width="120" height="60" as="geometry" />
        </mxCell>
        <mxCell id="p4ynDfjE8gliLkYYfuY1-7" value="" style="edgeStyle=orthogonalEdgeStyle;rounded=0;orthogonalLoop=1;jettySize=auto;html=1;" edge="1" parent="WIyWlLk6GJQsqaUBKTNV-1" source="p4ynDfjE8gliLkYYfuY1-4" target="p4ynDfjE8gliLkYYfuY1-6">
          <mxGeometry relative="1" as="geometry" />
        </mxCell>
        <mxCell id="p4ynDfjE8gliLkYYfuY1-4" value="显示详情（进程数，资源数，相关的矩阵等）" style="whiteSpace=wrap;html=1;rounded=0;" vertex="1" parent="WIyWlLk6GJQsqaUBKTNV-1">
          <mxGeometry x="160" y="-160" width="120" height="60" as="geometry" />
        </mxCell>
        <mxCell id="p4ynDfjE8gliLkYYfuY1-9" value="" style="edgeStyle=orthogonalEdgeStyle;rounded=0;orthogonalLoop=1;jettySize=auto;html=1;" edge="1" parent="WIyWlLk6GJQsqaUBKTNV-1" source="p4ynDfjE8gliLkYYfuY1-6" target="p4ynDfjE8gliLkYYfuY1-8">
          <mxGeometry relative="1" as="geometry" />
        </mxCell>
        <mxCell id="p4ynDfjE8gliLkYYfuY1-6" value="传入数据得到安全序列safeList" style="whiteSpace=wrap;html=1;rounded=0;" vertex="1" parent="WIyWlLk6GJQsqaUBKTNV-1">
          <mxGeometry x="160" y="-50" width="120" height="60" as="geometry" />
        </mxCell>
        <mxCell id="p4ynDfjE8gliLkYYfuY1-11" value="" style="edgeStyle=orthogonalEdgeStyle;rounded=0;orthogonalLoop=1;jettySize=auto;html=1;" edge="1" parent="WIyWlLk6GJQsqaUBKTNV-1" source="p4ynDfjE8gliLkYYfuY1-8" target="p4ynDfjE8gliLkYYfuY1-10">
          <mxGeometry relative="1" as="geometry" />
        </mxCell>
        <mxCell id="p4ynDfjE8gliLkYYfuY1-13" value="" style="edgeStyle=orthogonalEdgeStyle;rounded=0;orthogonalLoop=1;jettySize=auto;html=1;" edge="1" parent="WIyWlLk6GJQsqaUBKTNV-1" source="p4ynDfjE8gliLkYYfuY1-8" target="p4ynDfjE8gliLkYYfuY1-12">
          <mxGeometry relative="1" as="geometry" />
        </mxCell>
        <mxCell id="p4ynDfjE8gliLkYYfuY1-8" value="safeList.length&lt;br&gt;&amp;gt;0?" style="rhombus;whiteSpace=wrap;html=1;rounded=0;" vertex="1" parent="WIyWlLk6GJQsqaUBKTNV-1">
          <mxGeometry x="165" y="70" width="110" height="80" as="geometry" />
        </mxCell>
        <mxCell id="p4ynDfjE8gliLkYYfuY1-14" style="edgeStyle=orthogonalEdgeStyle;rounded=0;orthogonalLoop=1;jettySize=auto;html=1;entryX=0.5;entryY=1;entryDx=0;entryDy=0;" edge="1" parent="WIyWlLk6GJQsqaUBKTNV-1" source="p4ynDfjE8gliLkYYfuY1-10" target="p4ynDfjE8gliLkYYfuY1-18">
          <mxGeometry relative="1" as="geometry">
            <mxPoint x="510" y="20" as="targetPoint" />
            <Array as="points">
              <mxPoint x="510" y="270" />
              <mxPoint x="510" y="60" />
              <mxPoint x="414" y="60" />
            </Array>
          </mxGeometry>
        </mxCell>
        <mxCell id="p4ynDfjE8gliLkYYfuY1-10" value="打印安全序列" style="whiteSpace=wrap;html=1;rounded=0;" vertex="1" parent="WIyWlLk6GJQsqaUBKTNV-1">
          <mxGeometry x="160" y="240" width="120" height="60" as="geometry" />
        </mxCell>
        <mxCell id="p4ynDfjE8gliLkYYfuY1-15" style="edgeStyle=orthogonalEdgeStyle;rounded=0;orthogonalLoop=1;jettySize=auto;html=1;" edge="1" parent="WIyWlLk6GJQsqaUBKTNV-1" source="p4ynDfjE8gliLkYYfuY1-12">
          <mxGeometry relative="1" as="geometry">
            <mxPoint x="510" y="110" as="targetPoint" />
          </mxGeometry>
        </mxCell>
        <mxCell id="p4ynDfjE8gliLkYYfuY1-12" value="打印系统不安全" style="whiteSpace=wrap;html=1;rounded=0;" vertex="1" parent="WIyWlLk6GJQsqaUBKTNV-1">
          <mxGeometry x="350" y="80" width="120" height="60" as="geometry" />
        </mxCell>
        <mxCell id="p4ynDfjE8gliLkYYfuY1-16" value="Y" style="text;html=1;align=center;verticalAlign=middle;resizable=0;points=[];autosize=1;strokeColor=none;fillColor=none;" vertex="1" parent="WIyWlLk6GJQsqaUBKTNV-1">
          <mxGeometry x="220" y="190" width="20" height="20" as="geometry" />
        </mxCell>
        <mxCell id="p4ynDfjE8gliLkYYfuY1-17" value="N" style="text;html=1;align=center;verticalAlign=middle;resizable=0;points=[];autosize=1;strokeColor=none;fillColor=none;" vertex="1" parent="WIyWlLk6GJQsqaUBKTNV-1">
          <mxGeometry x="300" y="90" width="20" height="20" as="geometry" />
        </mxCell>
        <mxCell id="p4ynDfjE8gliLkYYfuY1-20" value="" style="edgeStyle=orthogonalEdgeStyle;rounded=0;orthogonalLoop=1;jettySize=auto;html=1;exitX=0.5;exitY=0;exitDx=0;exitDy=0;entryX=0.442;entryY=1;entryDx=0;entryDy=0;entryPerimeter=0;" edge="1" parent="WIyWlLk6GJQsqaUBKTNV-1" source="p4ynDfjE8gliLkYYfuY1-18" target="p4ynDfjE8gliLkYYfuY1-27">
          <mxGeometry relative="1" as="geometry">
            <mxPoint x="550" y="-170" as="targetPoint" />
            <Array as="points">
              <mxPoint x="407" y="-70" />
              <mxPoint x="407" y="-190" />
            </Array>
          </mxGeometry>
        </mxCell>
        <mxCell id="p4ynDfjE8gliLkYYfuY1-18" value="true" style="shape=loopLimit;whiteSpace=wrap;html=1;" vertex="1" parent="WIyWlLk6GJQsqaUBKTNV-1">
          <mxGeometry x="364" y="-70" width="100" height="80" as="geometry" />
        </mxCell>
        <mxCell id="p4ynDfjE8gliLkYYfuY1-30" value="" style="edgeStyle=orthogonalEdgeStyle;rounded=0;orthogonalLoop=1;jettySize=auto;html=1;" edge="1" parent="WIyWlLk6GJQsqaUBKTNV-1" source="p4ynDfjE8gliLkYYfuY1-27" target="p4ynDfjE8gliLkYYfuY1-29">
          <mxGeometry relative="1" as="geometry" />
        </mxCell>
        <mxCell id="p4ynDfjE8gliLkYYfuY1-27" value="根据交互选择&lt;br&gt;操作，获取操作数" style="shape=parallelogram;perimeter=parallelogramPerimeter;whiteSpace=wrap;html=1;fixedSize=1;" vertex="1" parent="WIyWlLk6GJQsqaUBKTNV-1">
          <mxGeometry x="344" y="-190" width="120" height="60" as="geometry" />
        </mxCell>
        <mxCell id="p4ynDfjE8gliLkYYfuY1-28" style="edgeStyle=orthogonalEdgeStyle;rounded=0;orthogonalLoop=1;jettySize=auto;html=1;exitX=0.5;exitY=1;exitDx=0;exitDy=0;" edge="1" parent="WIyWlLk6GJQsqaUBKTNV-1" source="p4ynDfjE8gliLkYYfuY1-27" target="p4ynDfjE8gliLkYYfuY1-27">
          <mxGeometry relative="1" as="geometry" />
        </mxCell>
        <mxCell id="p4ynDfjE8gliLkYYfuY1-32" value="" style="edgeStyle=orthogonalEdgeStyle;rounded=0;orthogonalLoop=1;jettySize=auto;html=1;exitX=1;exitY=0.5;exitDx=0;exitDy=0;entryX=0;entryY=0.5;entryDx=0;entryDy=0;" edge="1" parent="WIyWlLk6GJQsqaUBKTNV-1" source="p4ynDfjE8gliLkYYfuY1-29" target="p4ynDfjE8gliLkYYfuY1-31">
          <mxGeometry relative="1" as="geometry">
            <mxPoint x="570" y="-220" as="targetPoint" />
            <Array as="points" />
          </mxGeometry>
        </mxCell>
        <mxCell id="p4ynDfjE8gliLkYYfuY1-34" value="" style="edgeStyle=orthogonalEdgeStyle;rounded=0;orthogonalLoop=1;jettySize=auto;html=1;" edge="1" parent="WIyWlLk6GJQsqaUBKTNV-1" source="p4ynDfjE8gliLkYYfuY1-29" target="p4ynDfjE8gliLkYYfuY1-33">
          <mxGeometry relative="1" as="geometry">
            <Array as="points">
              <mxPoint x="520" y="-300" />
              <mxPoint x="520" y="-150" />
            </Array>
          </mxGeometry>
        </mxCell>
        <mxCell id="p4ynDfjE8gliLkYYfuY1-29" value="operation&lt;br&gt;（操作数）" style="rhombus;whiteSpace=wrap;html=1;" vertex="1" parent="WIyWlLk6GJQsqaUBKTNV-1">
          <mxGeometry x="364" y="-340" width="80" height="80" as="geometry" />
        </mxCell>
        <mxCell id="p4ynDfjE8gliLkYYfuY1-53" value="" style="edgeStyle=orthogonalEdgeStyle;rounded=0;orthogonalLoop=1;jettySize=auto;html=1;fontFamily=Helvetica;fontSize=12;fontColor=#000000;entryX=1;entryY=0.5;entryDx=0;entryDy=0;" edge="1" parent="WIyWlLk6GJQsqaUBKTNV-1" source="p4ynDfjE8gliLkYYfuY1-31" target="WIyWlLk6GJQsqaUBKTNV-11">
          <mxGeometry relative="1" as="geometry">
            <mxPoint x="650" y="-410" as="targetPoint" />
            <Array as="points">
              <mxPoint x="650" y="-430" />
            </Array>
          </mxGeometry>
        </mxCell>
        <mxCell id="p4ynDfjE8gliLkYYfuY1-31" value="退出程序" style="whiteSpace=wrap;html=1;" vertex="1" parent="WIyWlLk6GJQsqaUBKTNV-1">
          <mxGeometry x="590" y="-330" width="120" height="60" as="geometry" />
        </mxCell>
        <mxCell id="p4ynDfjE8gliLkYYfuY1-33" value="&lt;p style=&quot;line-height: 1&quot;&gt;打印&lt;span style=&quot;background-color: rgb(255 , 255 , 255)&quot;&gt;当前系统资源的占用和剩余情况&lt;/span&gt;&lt;/p&gt;" style="whiteSpace=wrap;html=1;" vertex="1" parent="WIyWlLk6GJQsqaUBKTNV-1">
          <mxGeometry x="590" y="-190" width="120" height="60" as="geometry" />
        </mxCell>
        <mxCell id="p4ynDfjE8gliLkYYfuY1-39" value="" style="endArrow=classic;html=1;rounded=0;" edge="1" parent="WIyWlLk6GJQsqaUBKTNV-1">
          <mxGeometry width="50" height="50" relative="1" as="geometry">
            <mxPoint x="520" y="-150" as="sourcePoint" />
            <mxPoint x="590" y="-10" as="targetPoint" />
            <Array as="points">
              <mxPoint x="520" y="-10" />
            </Array>
          </mxGeometry>
        </mxCell>
        <mxCell id="p4ynDfjE8gliLkYYfuY1-42" value="" style="endArrow=classic;html=1;rounded=0;" edge="1" parent="WIyWlLk6GJQsqaUBKTNV-1">
          <mxGeometry width="50" height="50" relative="1" as="geometry">
            <mxPoint x="520" y="-10" as="sourcePoint" />
            <mxPoint x="590" y="120" as="targetPoint" />
            <Array as="points">
              <mxPoint x="520" y="120" />
            </Array>
          </mxGeometry>
        </mxCell>
        <mxCell id="p4ynDfjE8gliLkYYfuY1-44" value="-1" style="text;html=1;align=center;verticalAlign=middle;resizable=0;points=[];autosize=1;strokeColor=none;fillColor=none;" vertex="1" parent="WIyWlLk6GJQsqaUBKTNV-1">
          <mxGeometry x="535" y="-320" width="30" height="20" as="geometry" />
        </mxCell>
        <mxCell id="p4ynDfjE8gliLkYYfuY1-47" value="0" style="text;html=1;align=center;verticalAlign=middle;resizable=0;points=[];autosize=1;strokeColor=none;fillColor=none;" vertex="1" parent="WIyWlLk6GJQsqaUBKTNV-1">
          <mxGeometry x="540" y="-170" width="20" height="20" as="geometry" />
        </mxCell>
        <mxCell id="p4ynDfjE8gliLkYYfuY1-48" value="1" style="text;html=1;align=center;verticalAlign=middle;resizable=0;points=[];autosize=1;strokeColor=none;fillColor=none;" vertex="1" parent="WIyWlLk6GJQsqaUBKTNV-1">
          <mxGeometry x="540" y="-30" width="20" height="20" as="geometry" />
        </mxCell>
        <mxCell id="p4ynDfjE8gliLkYYfuY1-49" value="2" style="text;html=1;align=center;verticalAlign=middle;resizable=0;points=[];autosize=1;strokeColor=none;fillColor=none;" vertex="1" parent="WIyWlLk6GJQsqaUBKTNV-1">
          <mxGeometry x="540" y="100" width="20" height="20" as="geometry" />
        </mxCell>
        <mxCell id="p4ynDfjE8gliLkYYfuY1-65" value="" style="edgeStyle=orthogonalEdgeStyle;rounded=0;orthogonalLoop=1;jettySize=auto;html=1;fontFamily=Helvetica;fontSize=12;fontColor=#000000;" edge="1" parent="WIyWlLk6GJQsqaUBKTNV-1" source="p4ynDfjE8gliLkYYfuY1-54" target="p4ynDfjE8gliLkYYfuY1-64">
          <mxGeometry relative="1" as="geometry" />
        </mxCell>
        <mxCell id="p4ynDfjE8gliLkYYfuY1-54" value="准备分配资源" style="verticalLabelPosition=bottom;verticalAlign=top;html=1;shape=process;whiteSpace=wrap;rounded=1;size=0.14;arcSize=6;labelBackgroundColor=#FFFFFF;fontFamily=Helvetica;fontSize=12;fontColor=#000000;" vertex="1" parent="WIyWlLk6GJQsqaUBKTNV-1">
          <mxGeometry x="590" y="-40" width="100" height="60" as="geometry" />
        </mxCell>
        <mxCell id="p4ynDfjE8gliLkYYfuY1-57" value="" style="edgeStyle=orthogonalEdgeStyle;rounded=0;orthogonalLoop=1;jettySize=auto;html=1;fontFamily=Helvetica;fontSize=12;fontColor=#000000;" edge="1" parent="WIyWlLk6GJQsqaUBKTNV-1" source="p4ynDfjE8gliLkYYfuY1-55" target="p4ynDfjE8gliLkYYfuY1-56">
          <mxGeometry relative="1" as="geometry" />
        </mxCell>
        <mxCell id="p4ynDfjE8gliLkYYfuY1-55" value="&lt;span style=&quot;background-color: rgb(248 , 249 , 250)&quot;&gt;选择一个&lt;br&gt;进程销毁&lt;/span&gt;" style="shape=parallelogram;perimeter=parallelogramPerimeter;whiteSpace=wrap;html=1;fixedSize=1;labelBackgroundColor=#FFFFFF;fontFamily=Helvetica;fontSize=12;fontColor=#000000;" vertex="1" parent="WIyWlLk6GJQsqaUBKTNV-1">
          <mxGeometry x="580" y="90" width="120" height="60" as="geometry" />
        </mxCell>
        <mxCell id="p4ynDfjE8gliLkYYfuY1-61" value="" style="edgeStyle=orthogonalEdgeStyle;rounded=0;orthogonalLoop=1;jettySize=auto;html=1;fontFamily=Helvetica;fontSize=12;fontColor=#000000;" edge="1" parent="WIyWlLk6GJQsqaUBKTNV-1" source="p4ynDfjE8gliLkYYfuY1-56" target="p4ynDfjE8gliLkYYfuY1-59">
          <mxGeometry relative="1" as="geometry">
            <Array as="points">
              <mxPoint x="950" y="120" />
            </Array>
          </mxGeometry>
        </mxCell>
        <mxCell id="p4ynDfjE8gliLkYYfuY1-56" value="撤销进程" style="whiteSpace=wrap;html=1;fontColor=#000000;labelBackgroundColor=#FFFFFF;" vertex="1" parent="WIyWlLk6GJQsqaUBKTNV-1">
          <mxGeometry x="780" y="90" width="120" height="60" as="geometry" />
        </mxCell>
        <mxCell id="p4ynDfjE8gliLkYYfuY1-58" value="进程号" style="text;html=1;align=center;verticalAlign=middle;resizable=0;points=[];autosize=1;strokeColor=none;fillColor=none;fontSize=12;fontFamily=Helvetica;fontColor=#000000;" vertex="1" parent="WIyWlLk6GJQsqaUBKTNV-1">
          <mxGeometry x="705" y="90" width="50" height="20" as="geometry" />
        </mxCell>
        <mxCell id="p4ynDfjE8gliLkYYfuY1-59" value="" style="shape=loopLimit;whiteSpace=wrap;html=1;rotation=-180;" vertex="1" parent="WIyWlLk6GJQsqaUBKTNV-1">
          <mxGeometry x="1000" y="80" width="100" height="80" as="geometry" />
        </mxCell>
        <mxCell id="p4ynDfjE8gliLkYYfuY1-60" value="&lt;span style=&quot;background-color: rgb(255 , 255 , 255)&quot;&gt;true&lt;/span&gt;" style="text;html=1;align=center;verticalAlign=middle;resizable=0;points=[];autosize=1;strokeColor=none;fillColor=none;fontSize=12;fontFamily=Helvetica;fontColor=#000000;" vertex="1" parent="WIyWlLk6GJQsqaUBKTNV-1">
          <mxGeometry x="1030" y="110" width="40" height="20" as="geometry" />
        </mxCell>
        <mxCell id="p4ynDfjE8gliLkYYfuY1-69" value="" style="edgeStyle=orthogonalEdgeStyle;rounded=0;orthogonalLoop=1;jettySize=auto;html=1;fontFamily=Helvetica;fontSize=12;fontColor=#000000;" edge="1" parent="WIyWlLk6GJQsqaUBKTNV-1" source="p4ynDfjE8gliLkYYfuY1-64">
          <mxGeometry relative="1" as="geometry">
            <mxPoint x="970" y="-10" as="targetPoint" />
            <Array as="points">
              <mxPoint x="940" y="-10" />
              <mxPoint x="940" y="-10" />
            </Array>
          </mxGeometry>
        </mxCell>
        <mxCell id="p4ynDfjE8gliLkYYfuY1-64" value="选择进程&lt;br&gt;进行分配，&lt;br&gt;然后输入分配资源" style="shape=parallelogram;perimeter=parallelogramPerimeter;whiteSpace=wrap;html=1;fixedSize=1;verticalAlign=top;fontColor=#000000;rounded=1;arcSize=6;labelBackgroundColor=#FFFFFF;" vertex="1" parent="WIyWlLk6GJQsqaUBKTNV-1">
          <mxGeometry x="760" y="-40" width="140" height="60" as="geometry" />
        </mxCell>
        <mxCell id="p4ynDfjE8gliLkYYfuY1-71" value="" style="edgeStyle=orthogonalEdgeStyle;rounded=0;orthogonalLoop=1;jettySize=auto;html=1;fontFamily=Helvetica;fontSize=12;fontColor=#000000;" edge="1" parent="WIyWlLk6GJQsqaUBKTNV-1" source="p4ynDfjE8gliLkYYfuY1-70">
          <mxGeometry relative="1" as="geometry">
            <mxPoint x="1050" y="80" as="targetPoint" />
          </mxGeometry>
        </mxCell>
        <mxCell id="p4ynDfjE8gliLkYYfuY1-74" value="" style="edgeStyle=orthogonalEdgeStyle;rounded=0;orthogonalLoop=1;jettySize=auto;html=1;fontFamily=Helvetica;fontSize=12;fontColor=#000000;" edge="1" parent="WIyWlLk6GJQsqaUBKTNV-1" source="p4ynDfjE8gliLkYYfuY1-70" target="p4ynDfjE8gliLkYYfuY1-73">
          <mxGeometry relative="1" as="geometry" />
        </mxCell>
        <mxCell id="p4ynDfjE8gliLkYYfuY1-70" value="拥有资源数是否满足" style="rhombus;whiteSpace=wrap;html=1;labelBackgroundColor=#FFFFFF;fontFamily=Helvetica;fontSize=12;fontColor=#000000;" vertex="1" parent="WIyWlLk6GJQsqaUBKTNV-1">
          <mxGeometry x="970" y="-50" width="120" height="80" as="geometry" />
        </mxCell>
        <mxCell id="p4ynDfjE8gliLkYYfuY1-72" value="N" style="text;html=1;align=center;verticalAlign=middle;resizable=0;points=[];autosize=1;strokeColor=none;fillColor=none;fontSize=12;fontFamily=Helvetica;fontColor=#000000;" vertex="1" parent="WIyWlLk6GJQsqaUBKTNV-1">
          <mxGeometry x="1010" y="30" width="20" height="20" as="geometry" />
        </mxCell>
        <mxCell id="p4ynDfjE8gliLkYYfuY1-77" value="" style="edgeStyle=orthogonalEdgeStyle;rounded=0;orthogonalLoop=1;jettySize=auto;html=1;fontFamily=Helvetica;fontSize=12;fontColor=#000000;" edge="1" parent="WIyWlLk6GJQsqaUBKTNV-1" source="p4ynDfjE8gliLkYYfuY1-73" target="p4ynDfjE8gliLkYYfuY1-76">
          <mxGeometry relative="1" as="geometry" />
        </mxCell>
        <mxCell id="p4ynDfjE8gliLkYYfuY1-73" value="&lt;span style=&quot;background-color: rgb(248 , 249 , 250)&quot;&gt;传入数据得到安全序列safeList&lt;/span&gt;" style="whiteSpace=wrap;html=1;fontColor=#000000;labelBackgroundColor=#FFFFFF;" vertex="1" parent="WIyWlLk6GJQsqaUBKTNV-1">
          <mxGeometry x="950" y="-190" width="120" height="60" as="geometry" />
        </mxCell>
        <mxCell id="p4ynDfjE8gliLkYYfuY1-75" value="Y" style="text;html=1;align=center;verticalAlign=middle;resizable=0;points=[];autosize=1;strokeColor=none;fillColor=none;fontSize=12;fontFamily=Helvetica;fontColor=#000000;" vertex="1" parent="WIyWlLk6GJQsqaUBKTNV-1">
          <mxGeometry x="1010" y="-90" width="20" height="20" as="geometry" />
        </mxCell>
        <mxCell id="p4ynDfjE8gliLkYYfuY1-79" value="" style="edgeStyle=orthogonalEdgeStyle;rounded=0;orthogonalLoop=1;jettySize=auto;html=1;fontFamily=Helvetica;fontSize=12;fontColor=#000000;" edge="1" parent="WIyWlLk6GJQsqaUBKTNV-1" source="p4ynDfjE8gliLkYYfuY1-76" target="p4ynDfjE8gliLkYYfuY1-78">
          <mxGeometry relative="1" as="geometry" />
        </mxCell>
        <mxCell id="p4ynDfjE8gliLkYYfuY1-81" value="" style="edgeStyle=orthogonalEdgeStyle;rounded=0;orthogonalLoop=1;jettySize=auto;html=1;fontFamily=Helvetica;fontSize=12;fontColor=#000000;" edge="1" parent="WIyWlLk6GJQsqaUBKTNV-1" source="p4ynDfjE8gliLkYYfuY1-76" target="p4ynDfjE8gliLkYYfuY1-80">
          <mxGeometry relative="1" as="geometry">
            <Array as="points">
              <mxPoint x="1010" y="-390" />
              <mxPoint x="1010" y="-390" />
            </Array>
          </mxGeometry>
        </mxCell>
        <mxCell id="p4ynDfjE8gliLkYYfuY1-76" value="safeList.length&lt;br&gt;&amp;gt;0?" style="rhombus;whiteSpace=wrap;html=1;rounded=0;" vertex="1" parent="WIyWlLk6GJQsqaUBKTNV-1">
          <mxGeometry x="955" y="-330" width="110" height="80" as="geometry" />
        </mxCell>
        <mxCell id="p4ynDfjE8gliLkYYfuY1-86" value="" style="edgeStyle=orthogonalEdgeStyle;rounded=0;orthogonalLoop=1;jettySize=auto;html=1;fontFamily=Helvetica;fontSize=12;fontColor=#000000;" edge="1" parent="WIyWlLk6GJQsqaUBKTNV-1" source="p4ynDfjE8gliLkYYfuY1-78" target="p4ynDfjE8gliLkYYfuY1-85">
          <mxGeometry relative="1" as="geometry" />
        </mxCell>
        <mxCell id="p4ynDfjE8gliLkYYfuY1-78" value="获得安全序列，&lt;br&gt;分配资源" style="whiteSpace=wrap;html=1;rounded=0;" vertex="1" parent="WIyWlLk6GJQsqaUBKTNV-1">
          <mxGeometry x="820" y="-320" width="120" height="60" as="geometry" />
        </mxCell>
        <mxCell id="p4ynDfjE8gliLkYYfuY1-84" value="" style="edgeStyle=orthogonalEdgeStyle;rounded=0;orthogonalLoop=1;jettySize=auto;html=1;fontFamily=Helvetica;fontSize=12;fontColor=#000000;entryX=0;entryY=0.5;entryDx=0;entryDy=0;exitX=1;exitY=0.5;exitDx=0;exitDy=0;" edge="1" parent="WIyWlLk6GJQsqaUBKTNV-1" source="p4ynDfjE8gliLkYYfuY1-80" target="p4ynDfjE8gliLkYYfuY1-59">
          <mxGeometry relative="1" as="geometry">
            <mxPoint x="1200" y="250" as="targetPoint" />
            <Array as="points">
              <mxPoint x="1110" y="-440" />
              <mxPoint x="1110" y="120" />
            </Array>
          </mxGeometry>
        </mxCell>
        <mxCell id="p4ynDfjE8gliLkYYfuY1-80" value="&lt;span&gt;打印系统不安全，&lt;br&gt;不分配资源&lt;br&gt;&lt;/span&gt;" style="whiteSpace=wrap;html=1;rounded=0;" vertex="1" parent="WIyWlLk6GJQsqaUBKTNV-1">
          <mxGeometry x="955" y="-470" width="120" height="60" as="geometry" />
        </mxCell>
        <mxCell id="p4ynDfjE8gliLkYYfuY1-82" value="N" style="text;html=1;align=center;verticalAlign=middle;resizable=0;points=[];autosize=1;strokeColor=none;fillColor=none;fontSize=12;fontFamily=Helvetica;fontColor=#000000;" vertex="1" parent="WIyWlLk6GJQsqaUBKTNV-1">
          <mxGeometry x="1020" y="-360" width="20" height="20" as="geometry" />
        </mxCell>
        <mxCell id="p4ynDfjE8gliLkYYfuY1-89" value="" style="edgeStyle=orthogonalEdgeStyle;rounded=0;orthogonalLoop=1;jettySize=auto;html=1;fontFamily=Helvetica;fontSize=12;fontColor=#000000;" edge="1" parent="WIyWlLk6GJQsqaUBKTNV-1" source="p4ynDfjE8gliLkYYfuY1-85" target="p4ynDfjE8gliLkYYfuY1-88">
          <mxGeometry relative="1" as="geometry" />
        </mxCell>
        <mxCell id="p4ynDfjE8gliLkYYfuY1-85" value="进程是否&lt;br&gt;已获得所有&lt;br&gt;需要的资源" style="rhombus;whiteSpace=wrap;html=1;rounded=0;" vertex="1" parent="WIyWlLk6GJQsqaUBKTNV-1">
          <mxGeometry x="830" y="-220" width="100" height="90" as="geometry" />
        </mxCell>
        <mxCell id="p4ynDfjE8gliLkYYfuY1-94" value="" style="edgeStyle=orthogonalEdgeStyle;rounded=0;orthogonalLoop=1;jettySize=auto;html=1;fontFamily=Helvetica;fontSize=12;fontColor=#000000;" edge="1" parent="WIyWlLk6GJQsqaUBKTNV-1" source="p4ynDfjE8gliLkYYfuY1-88">
          <mxGeometry relative="1" as="geometry">
            <mxPoint x="890" y="-340" as="targetPoint" />
          </mxGeometry>
        </mxCell>
        <mxCell id="p4ynDfjE8gliLkYYfuY1-88" value="撤销进程" style="whiteSpace=wrap;html=1;rounded=0;" vertex="1" parent="WIyWlLk6GJQsqaUBKTNV-1">
          <mxGeometry x="700" y="-450" width="120" height="60" as="geometry" />
        </mxCell>
        <mxCell id="p4ynDfjE8gliLkYYfuY1-90" value="Y" style="text;html=1;align=center;verticalAlign=middle;resizable=0;points=[];autosize=1;strokeColor=none;fillColor=none;fontSize=12;fontFamily=Helvetica;fontColor=#000000;" vertex="1" parent="WIyWlLk6GJQsqaUBKTNV-1">
          <mxGeometry x="760" y="-370" width="20" height="20" as="geometry" />
        </mxCell>
        <mxCell id="p4ynDfjE8gliLkYYfuY1-91" value="" style="endArrow=classic;html=1;rounded=0;fontFamily=Helvetica;fontSize=12;fontColor=#000000;" edge="1" parent="WIyWlLk6GJQsqaUBKTNV-1">
          <mxGeometry width="50" height="50" relative="1" as="geometry">
            <mxPoint x="930" y="-340" as="sourcePoint" />
            <mxPoint x="1100" y="-440" as="targetPoint" />
            <Array as="points">
              <mxPoint x="930" y="-500" />
              <mxPoint x="1100" y="-500" />
              <mxPoint x="1100" y="-460" />
              <mxPoint x="1100" y="-440" />
            </Array>
          </mxGeometry>
        </mxCell>
        <mxCell id="p4ynDfjE8gliLkYYfuY1-92" value="N" style="text;html=1;align=center;verticalAlign=middle;resizable=0;points=[];autosize=1;strokeColor=none;fillColor=none;fontSize=12;fontFamily=Helvetica;fontColor=#000000;" vertex="1" parent="WIyWlLk6GJQsqaUBKTNV-1">
          <mxGeometry x="800" y="-360" width="20" height="20" as="geometry" />
        </mxCell>
        <mxCell id="p4ynDfjE8gliLkYYfuY1-95" style="edgeStyle=orthogonalEdgeStyle;rounded=0;orthogonalLoop=1;jettySize=auto;html=1;exitX=0.5;exitY=1;exitDx=0;exitDy=0;fontFamily=Helvetica;fontSize=12;fontColor=#000000;" edge="1" parent="WIyWlLk6GJQsqaUBKTNV-1" source="p4ynDfjE8gliLkYYfuY1-80" target="p4ynDfjE8gliLkYYfuY1-80">
          <mxGeometry relative="1" as="geometry" />
        </mxCell>
        <mxCell id="p4ynDfjE8gliLkYYfuY1-96" value="" style="endArrow=none;html=1;rounded=0;fontFamily=Helvetica;fontSize=12;fontColor=#000000;" edge="1" parent="WIyWlLk6GJQsqaUBKTNV-1">
          <mxGeometry width="50" height="50" relative="1" as="geometry">
            <mxPoint x="760" y="-340" as="sourcePoint" />
            <mxPoint x="930" y="-340" as="targetPoint" />
            <Array as="points" />
          </mxGeometry>
        </mxCell>
      </root>
    </mxGraphModel>
  </diagram>
</mxfile>
